<svg xmlns="http://www.w3.org/2000/svg" width="93" height="46" viewBox="0 0 93 46" fill="none">
  <g clip-path="url(#clip0_1_1621)">
    <path d="M90.9357 9.18746C96.5517 -15.6118 81.0006 -40.2682 56.2014 -45.8843C31.4022 -51.5003 6.74573 -35.9493 1.12969 -11.15C-4.48636 13.6492 11.0647 38.3057 35.8639 43.9217C60.6632 49.5378 85.3196 33.9867 90.9357 9.18746Z" fill="url(#paint0_radial_1_1621)"/>
    <path style="mix-blend-mode:hard-light" opacity="0.45" d="M90.9357 9.18746C96.5517 -15.6118 81.0006 -40.2682 56.2014 -45.8843C31.4022 -51.5003 6.74573 -35.9493 1.12969 -11.15C-4.48636 13.6492 11.0647 38.3057 35.8639 43.9217C60.6632 49.5378 85.3196 33.9867 90.9357 9.18746Z" fill="url(#paint1_radial_1_1621)"/>
    <path style="mix-blend-mode:hard-light" opacity="0.35" d="M90.9357 9.18746C96.5517 -15.6118 81.0006 -40.2682 56.2014 -45.8843C31.4022 -51.5003 6.74573 -35.9493 1.12969 -11.15C-4.48636 13.6492 11.0647 38.3057 35.8639 43.9217C60.6632 49.5378 85.3196 33.9867 90.9357 9.18746Z" fill="url(#paint2_linear_1_1621)"/>
    <path style="mix-blend-mode:hard-light" opacity="0.35" d="M91.0277 8.8555C96.4401 -15.989 80.6873 -40.517 55.8428 -45.9294C30.9984 -51.3419 6.47031 -35.5891 1.05788 -10.7446C-4.35455 14.0998 11.3982 38.6279 36.2427 44.0403C61.0872 49.4528 85.6152 33.7 91.0277 8.8555Z" fill="url(#paint3_linear_1_1621)"/>
  </g>
  <defs>
    <radialGradient id="paint0_radial_1_1621" cx="0" cy="0" r="1" gradientUnits="userSpaceOnUse" gradientTransform="translate(28.0111 -29.4986) scale(80.06)">
      <stop stop-color="#E6CFFF"/>
      <stop offset="0.03" stop-color="#E5CDFE"/>
      <stop offset="0.38" stop-color="#DDB6F2"/>
      <stop offset="0.71" stop-color="#D8A9EB"/>
      <stop offset="1" stop-color="#D6A4E9"/>
    </radialGradient>
    <radialGradient id="paint1_radial_1_1621" cx="0" cy="0" r="1" gradientUnits="userSpaceOnUse" gradientTransform="translate(46.0211 -0.968613) scale(46.04)">
      <stop offset="0.17" stop-color="#FFF3F0" stop-opacity="0"/>
      <stop offset="0.48" stop-color="#FFF3F0" stop-opacity="0.01"/>
      <stop offset="0.59" stop-color="#FFF3F0" stop-opacity="0.03"/>
      <stop offset="0.67" stop-color="#FFF3F0" stop-opacity="0.08"/>
      <stop offset="0.73" stop-color="#FFF3F0" stop-opacity="0.15"/>
      <stop offset="0.79" stop-color="#FFF3F0" stop-opacity="0.23"/>
      <stop offset="0.84" stop-color="#FFF3F0" stop-opacity="0.34"/>
      <stop offset="0.88" stop-color="#FFF3F0" stop-opacity="0.47"/>
      <stop offset="0.92" stop-color="#FFF3F0" stop-opacity="0.61"/>
      <stop offset="0.96" stop-color="#FFF3F0" stop-opacity="0.78"/>
      <stop offset="0.99" stop-color="#FFF3F0" stop-opacity="0.96"/>
      <stop offset="1" stop-color="#FFF3F0"/>
    </radialGradient>
    <linearGradient id="paint2_linear_1_1621" x1="13.4711" y1="-33.5186" x2="78.5711" y2="31.5814" gradientUnits="userSpaceOnUse">
      <stop offset="0.4" stop-color="#FFF3F0" stop-opacity="0"/>
      <stop offset="0.62" stop-color="#FFF3F0" stop-opacity="0.01"/>
      <stop offset="0.7" stop-color="#FFF3F0" stop-opacity="0.03"/>
      <stop offset="0.76" stop-color="#FFF3F0" stop-opacity="0.08"/>
      <stop offset="0.81" stop-color="#FFF3F0" stop-opacity="0.15"/>
      <stop offset="0.85" stop-color="#FFF3F0" stop-opacity="0.23"/>
      <stop offset="0.88" stop-color="#FFF3F0" stop-opacity="0.34"/>
      <stop offset="0.91" stop-color="#FFF3F0" stop-opacity="0.47"/>
      <stop offset="0.94" stop-color="#FFF3F0" stop-opacity="0.61"/>
      <stop offset="0.97" stop-color="#FFF3F0" stop-opacity="0.78"/>
      <stop offset="1" stop-color="#FFF3F0"/>
    </linearGradient>
    <linearGradient id="paint3_linear_1_1621" x1="79.0201" y1="30.5893" x2="13.9201" y2="-34.5107" gradientUnits="userSpaceOnUse">
      <stop offset="0.4" stop-color="#FFF3F0" stop-opacity="0"/>
      <stop offset="0.62" stop-color="#FFF3F0" stop-opacity="0.01"/>
      <stop offset="0.7" stop-color="#FFF3F0" stop-opacity="0.03"/>
      <stop offset="0.76" stop-color="#FFF3F0" stop-opacity="0.08"/>
      <stop offset="0.81" stop-color="#FFF3F0" stop-opacity="0.15"/>
      <stop offset="0.85" stop-color="#FFF3F0" stop-opacity="0.23"/>
      <stop offset="0.88" stop-color="#FFF3F0" stop-opacity="0.34"/>
      <stop offset="0.91" stop-color="#FFF3F0" stop-opacity="0.47"/>
      <stop offset="0.94" stop-color="#FFF3F0" stop-opacity="0.61"/>
      <stop offset="0.97" stop-color="#FFF3F0" stop-opacity="0.78"/>
      <stop offset="1" stop-color="#FFF3F0"/>
    </linearGradient>
    <clipPath id="clip0_1_1621">
      <rect width="92.07" height="92.07" fill="white" transform="translate(0 -47)"/>
    </clipPath>
  </defs>
</svg>